# AST/ASF file generated using VICON BodyLanguage
# -----------------------------------------------
:version 1.10
:name VICON
:units
  mass 1.0
  length 0.45
  angle deg
:documentation
   .ast/.asf automatically generated from VICON data using
   VICON BodyBuilder and BodyLanguage model FoxedUp or BRILLIANT.MOD
:root
   order TX TY TZ RX RY RZ
   axis XYZ
   position 0 0 0  
   orientation 0 0 0 
:bonedata
  begin
     id 1 
     name lhipjoint
     direction 0.61886 -0.69539 0.365302 
     length 2.20474 
     axis 0 0 0  XYZ
  end
  begin
     id 2 
     name lfemur
     direction 0.34202 -0.939693 0  
     length 6.65149  
     axis 0 0 20  XYZ
    dof rx ry rz
    limits (-160.0 20.0)
           (-70.0 70.0)
           (-60.0 70.0)
  end
  begin
     id 3 
     name ltibia
     direction 0.34202 -0.939693 0   
     length 6.35814   
     axis 0 0 20   XYZ
    dof rx
    limits (-10.0 170.0)
  end
  begin
     id 4 
     name lfoot
     direction 0.101224 -0.278109 0.955201   
     length 2.18766   
     axis -90 7.62852e-016 20   XYZ
    dof rx rz
    limits (-45.0 90.0)
           (-70.0 20.0)
  end
  begin
     id 5 
     name ltoes
     direction 1.53524e-011 -4.21877e-011 1   
     length 1.09206   
     axis -90 7.62852e-016 20   XYZ
    dof rx
    limits (-90.0 20.0)
  end
  begin
     id 6 
     name rhipjoint
     direction -0.600207 -0.708087 0.371972   
     length 2.1652  
     axis 0 0 0  XYZ 
  end
  begin
     id 7 
     name rfemur
     direction -0.34202 -0.939693 0   
     length 6.54691   
     axis 0 0 -20   XYZ
    dof rx ry rz
    limits (-160.0 20.0)
           (-70.0 70.0)
           (-70.0 60.0)
  end
  begin
     id 8 
     name rtibia
     direction -0.34202 -0.939693 0   
     length 6.37474   
     axis 0 0 -20   XYZ
    dof rx
    limits (-10.0 170.0)
 end
 begin
     id 9 
     name rfoot
     direction -0.111266 -0.3057 0.945604   
     length 2.00903  
     axis -90 -7.62852e-016 -20   XYZ
    dof rx rz
    limits (-45.0 90.0)
           (-20.0 70.0)
  end
  begin
     id 10 
     name rtoes
     direction -1.5362e-011 -4.21913e-011 1   
     length 1.00221   
     axis -90 -7.62852e-016 -20   XYZ
    dof rx
    limits (-90.0 20.0)
  end
  begin
     id 11 
     name lowerback
     direction -0.0224561 0.999731 -0.00577314   
     length 2.10409   
     axis 0 0 0   XYZ
    dof rx ry rz
    limits (-20.0 45.0)
           (-30.0 30.0)
           (-30.0 30.0)
  end
  begin
     id 12 
     name upperback
     direction 0.0213126 0.999185 -0.0342817   
     length 2.09783   
     axis 0 0 0   XYZ
    dof rx ry rz
    limits (-20.0 45.0)
           (-30.0 30.0)
           (-30.0 30.0)
  end
  begin
     id 13 
     name thorax
     direction 0.0312356 0.999036 -0.0308451   
     length 2.09788   
     axis 0 0 0   XYZ
    dof rx ry rz
    limits (-20.0 45.0)
           (-30.0 30.0)
           (-30.0 30.0)
  end
  begin
     id 14 
     name lowerneck
     direction -0.0114419 0.996481 0.0830329   
     length 1.38575   
     axis 0 0 0   XYZ
    dof rx ry rz
    limits (-20.0 45.0)
           (-30.0 30.0)
           (-30.0 30.0)
  end
  begin
     id 15 
     name upperneck
     direction -0.0075675 0.996187 -0.0869092   
     length 1.39401   
     axis 0 0 0   XYZ
    dof rx ry rz
    limits (-20.0 45.0)
           (-30.0 30.0)
           (-30.0 30.0)
  end
  begin
     id 16
     name head
     direction -0.00222073 0.999264 -0.0382974  
     length 1.3964  
     axis 0 0 0   XYZ
    dof rx ry rz
    limits (-20.0 45.0)
           (-30.0 30.0)
           (-30.0 30.0)
  end
  begin
     id 17 
     name lclavicle
     direction 0.965962 0.222138 0.132556  
     length 2.81514  
     axis 0 0 0   XYZ
    dof ry rz
    limits (-20.0 10.0)
           (0.0 20.0)
  end
  begin
     id 18 
     name lhumerus
     direction 1 -4.48972e-011 7.03471e-018   
     length 4.47366   
     axis 180 -30 -90   XYZ
    dof rx ry rz
    limits (-60.0 90.0)
           (-90.0 90.0)
           (-90.0 90.0)
  end
  begin
     id 19
     name lradius
     direction 1 -4.48951e-011 -6.22192e-028   
     length 3.19948   
     axis 180 -30 -90   XYZ
    dof rx
    limits (-10.0 170.0)
  end
  begin
     id 20
     name lwrist
     direction 1 -4.48967e-011 -1.24264e-027   
     length 1.59974   
     axis 1.40095e-015 90 90   XYZ
    dof ry
    limits (-180.0 0.0)
 end
  begin
     id 21 
     name lhand
     direction 1 -4.4897e-011 -2.48528e-027   
     length 0.492667   
     axis 1.58582e-015 90 90   XYZ
    dof rx rz
    limits (-90.0 90.0)
           (-45.0 45.0)
  end
  begin
     id 22 
     name lfingers
     direction 1 -4.48996e-011 -4.97056e-027   
     length 0.397201   
     axis 3.17164e-015 90 90   XYZ
    dof rx
    limits (0.0 90.0)
  end
  begin
     id 23
     name lthumb
     direction 0.707107 -6.34981e-011 0.707107   
     length 0.570303   
     axis -90 45 2.85299e-015   XYZ
    dof rx rz
    limits (-45.0 45.0)
           (-45.0 45.0)
  end
  begin
     id 24 
     name rclavicle
     direction -0.961164 0.229034 0.153972   
     length 3.09348  
     axis 0 0 0   XYZ 
    dof ry rz
    limits (-10.0 20.0)
           (-20.0 0.0)
  end
  begin
     id 25 
     name rhumerus
     direction -1 -4.48971e-011 -9.06263e-028  
     length 4.3269   
     axis 180 30 90   XYZ
    dof rx ry rz
    limits (-90.0 60.0)
           (-90.0 90.0)
           (-90.0 90.0)
  end
  begin
     id 26 
     name rradius
     direction -1 -4.48953e-011 1.44659e-027   
     length 3.1896   
     axis 180 30 90   XYZ
    dof rx
    limits (-10.0 170.0)
  end
  begin
     id 27 
     name rwrist
     direction -1 -4.48988e-011 -1.24264e-027   
     length 1.5948   
     axis 1.40095e-015 -90 -90   XYZ
    dof ry
    limits (-180.0 0.0)
  end
  begin
     id 28
     name rhand
     direction -1 -4.49033e-011 -2.48528e-027   
     length 0.464496   
     axis 1.58582e-015 -90 -90   XYZ
    dof rx rz
    limits (-90.0 90.0)
           (-45.0 45.0)
  end
  begin
     id 29
     name rfingers
     direction -1 -4.48905e-011 -4.97056e-027   
     length 0.374489   
     axis 3.17164e-015 -90 -90   XYZ
    dof rx
    limits (0.0 90.0)
  end
  begin
     id 30
     name rthumb
     direction -0.707107 -6.34909e-011 0.707107   
     length 0.537693   
     axis -90 -45 -2.85299e-015   XYZ
    dof rx rz
    limits (-45.0 45.0)
           (-45.0 45.0)
  end
:hierarchy
  begin
    root lhipjoint rhipjoint lowerback
    lhipjoint lfemur
    lfemur ltibia
    ltibia lfoot
    lfoot ltoes
    rhipjoint rfemur
    rfemur rtibia
    rtibia rfoot
    rfoot rtoes
    lowerback upperback
    upperback thorax
    thorax lowerneck lclavicle rclavicle
    lowerneck upperneck
    upperneck head
    lclavicle lhumerus
    lhumerus lradius
    lradius lwrist
    lwrist lhand lthumb
    lhand lfingers
    rclavicle rhumerus
    rhumerus rradius
    rradius rwrist
    rwrist rhand rthumb
    rhand rfingers
  end

#!OML:ASF G:\acrobat\cartwheel_test 2\Patient 1\Session 2\acrobat4.ASF
:FULLY-SPECIFIED
:DEGREES
1282
root 9.2745 20.6363 -6.50243 306.299 29.4694 144.382
lowerback 14.4638 4.28356 5.64385
upperback -1.82381 7.1379 12.8849
thorax -11.3188 3.29335 9.61323
lowerneck -28.4025 -5.55043 -4.00985
upperneck -5.86692 -5.607 4.83217
head 2.65119 -2.11345 1.63133
rclavicle -2.37746e-013 -8.74653e-014
rhumerus 71.1729 -19.9582 -64.5605
rradius 47.8528
rwrist 1.80224
rhand -39.5815 94.3476
rfingers 7.12502
rthumb -12.5644 123.95
lclavicle -2.37746e-013 -8.74653e-014
lhumerus 78.4929 37.2271 30.2397
lradius 44.7028
lwrist 4.48894
lhand -63.6424 -14.078
lfingers 7.12502
lthumb -35.612 12.3329
rfemur -53.301 -17.0151 -27.7801
rtibia 42.735
rfoot -10.2165 -27.1654
rtoes -2.53608
lfemur 10.37 2.31868 -10.3618
ltibia -2.22639e-014
lfoot 1.41432 4.62189
ltoes -53.817
1283
root 9.27701 20.5719 -6.73089 307.278 31.1553 144.422
lowerback 13.9646 4.30326 5.80105
upperback -2.25935 7.18623 12.8029
thorax -11.4988 3.30723 9.44666
lowerneck -27.8777 -5.47297 -4.52704
upperneck -6.01302 -5.37281 4.6334
head 2.53683 -2.01561 1.68001
rclavicle 2.30988e-013 -2.94201e-014
rhumerus 68.9623 -20.0766 -62.8648
rradius 51.1957
rwrist 1.34167
rhand -39.6264 95.1701
rfingers 7.12502
rthumb -12.6077 124.77
lclavicle 2.30988e-013 -2.94201e-014
lhumerus 75.5803 36.5861 30.5933
lradius 46.1664
lwrist 2.98899
lhand -66.9497 -23.341
lfingers 7.12502
lthumb -38.7394 2.25321
rfemur -48.5407 -14.5248 -28.655
rtibia 41.9136
rfoot -9.38362 -26.5064
rtoes -11.6256
lfemur 9.5946 1.5811 -10.1562
ltibia -6.67916e-014
lfoot 0.044368 4.76195
ltoes -54.6228
1284
root 9.27646 20.5107 -6.93401 308.552 33.224 143.992
lowerback 12.3219 4.25961 5.77872
upperback -2.314 6.9107 13.028
thorax -10.5856 3.19734 9.83802
lowerneck -28.9979 -5.64519 -5.67645
upperneck -5.86236 -5.11623 4.5691
head 2.72863 -1.83276 1.85338
rclavicle 1.0138e-013 -5.88403e-014
rhumerus 68.3379 -20.2791 -61.4789
rradius 54.0302
rwrist 1.21142
rhand -39.6191 95.735
rfingers 7.12502
rthumb -12.6006 125.335
lclavicle 1.0138e-013 -5.88403e-014
lhumerus 72.8981 37.2571 30.8434
lradius 47.5181
lwrist 2.91373
lhand -69.7817 113.334
lfingers 7.12502
lthumb -41.404 -88.5476
rfemur -44.0348 -12.9309 -29.3317
rtibia 41.2463
rfoot -8.75921 -27.2792
rtoes -16.4296
lfemur 8.03424 0.416551 -10.0009
ltibia -1.27222e-014
lfoot -1.15537 5.1974
ltoes -55.2415
1285
root 9.28598 20.4451 -7.13226 309.531 34.7722 144.124
lowerback 11.6443 4.34515 6.02829
upperback -2.59886 6.99301 12.9217
thorax -10.4698 3.21439 9.57908
lowerneck -28.6764 -5.40966 -5.58651
upperneck -6.12493 -4.84467 4.10453
head 2.57701 -1.73196 1.72524
rclavicle 5.28767e-014 -7.07673e-014
rhumerus 66.9845 -20.5171 -60.3708
rradius 56.4031
rwrist 1.26965
rhand -39.3249 95.9367
rfingers 7.12502
rthumb -12.3169 125.554
lclavicle 5.28767e-014 -7.07673e-014
lhumerus 70.2559 37.0335 30.9545
lradius 49.7819
lwrist 3.13694
lhand -67.5475 169.744
lfingers 7.12502
lthumb -39.303 -215.688
rfemur -40.0629 -10.7098 -29.4244
rtibia 40.8069
rfoot -8.62153 -27.6708
rtoes -21.3407
lfemur 7.28186 -0.171149 -9.66273
ltibia -3.18055e-015
lfoot -2.42198 6.05175
ltoes -55.7886
1286
root 9.29413 20.3954 -7.31507 310.697 36.4386 144.186
lowerback 10.7713 4.31797 6.50856
upperback -3.24677 6.97785 12.4455
thorax -10.5466 3.15523 8.79419
lowerneck -27.7716 -5.22068 -5.49951
upperneck -6.3716 -4.72739 4.18402
head 2.38808 -1.70306 1.75955
rclavicle 2.66371e-013 -5.88403e-014
rhumerus 64.976 -20.5973 -59.4596
rradius 58.7283
rwrist 1.44192
rhand -39.6363 97.0786
rfingers 7.12502
rthumb -12.6172 126.678
lclavicle 2.66371e-013 -5.88403e-014
lhumerus 68.0254 36.3136 31.1402
lradius 52.6719
lwrist 3.28586
lhand -66.3164 170.08
lfingers 7.12502
lthumb -38.1418 -215.681
rfemur -36.3877 -9.11662 -29.339
rtibia 40.346
rfoot -8.27805 -28.0736
rtoes -26.1489
lfemur 6.33425 -0.840845 -9.32078
ltibia 2.22639e-014
lfoot -3.25654 6.84238
ltoes -55.8243
1287
root 9.3045 20.3429 -7.4977 311.815 38.1774 144.6
lowerback 9.88632 4.34298 6.65856
upperback -3.67676 6.9468 11.9784
thorax -10.4071 3.11172 8.21211
lowerneck -27.324 -5.15565 -5.75476
upperneck -6.38586 -4.63444 4.50889
head 2.34194 -1.65853 1.91582
rclavicle -1.10127e-013 1.4233e-013
rhumerus 63.0691 -20.4802 -58.6283
rradius 61.1413
rwrist 1.77895
rhand -39.8294 97.3579
rfingers 7.12502
rthumb -12.8033 126.945
lclavicle -1.10127e-013 1.4233e-013
lhumerus 66.3202 35.686 31.4701
lradius 55.1645
lwrist 3.6165
lhand -65.9094 168.372
lfingers 7.12502
lthumb -37.7574 -217.493
rfemur -32.7401 -6.72184 -29.7045
rtibia 39.8759
rfoot -10.1468 -28.4797
rtoes -27.7121
lfemur 5.74213 -1.41125 -9.18343
ltibia -6.36111e-015
lfoot -3.30293 7.29279
ltoes -55.9006
1288
root 9.32355 20.3155 -7.65898 312.781 39.7238 145.442
lowerback 9.4563 4.49294 6.60885
upperback -3.91967 7.08812 11.5945
thorax -10.3821 3.16262 7.7912
lowerneck -27.2972 -5.25432 -5.99517
upperneck -6.22004 -4.73046 4.76006
head 2.40829 -1.7054 2.02168
rclavicle -2.34765e-013 7.95139e-014
rhumerus 61.2935 -20.5583 -57.2464
rradius 63.2169
rwrist 1.79434
rhand -39.8638 97.5097
rfingers 7.12502
rthumb -12.8365 127.095
lclavicle -2.34765e-013 7.95139e-014
lhumerus 64.4174 35.243 31.0069
lradius 57.0431
lwrist 4.7917
lhand -65.5092 166.454
lfingers 7.12502
lthumb -37.3792 -219.511
rfemur -29.3869 -4.41849 -29.8683
rtibia 39.252
rfoot -9.99736 -28.753
rtoes -30.6745
lfemur 5.6587 -1.72356 -9.03349
ltibia 3.18055e-015
lfoot -3.05545 7.16665
ltoes -57.3941
1289
root 9.34674 20.3102 -7.81117 313.607 41.0494 146.563
lowerback 9.51389 4.72263 6.57873
upperback -4.07308 7.38864 11.2099
thorax -10.5578 3.28151 7.30944
lowerneck -27.4904 -5.25317 -6.02733
upperneck -5.94643 -4.7291 4.80091
head 2.5195 -1.71238 2.03488
rclavicle 2.66371e-014 7.07673e-014
rhumerus 59.4384 -20.6686 -55.6081
rradius 64.8979
rwrist 1.80394
rhand -39.5578 98.5415
rfingers 7.12502
rthumb -12.5415 128.145
lclavicle 2.66371e-014 7.07673e-014
lhumerus 62.1513 34.5046 30.8334
lradius 59.1162
lwrist 5.67361
lhand -64.9226 166.071
lfingers 7.12502
lthumb -36.8244 -220.039
rfemur -26.2854 -2.03446 -29.8975
rtibia 38.5542
rfoot -9.54637 -29.0309
rtoes -33.8726
lfemur 5.94128 -1.83786 -8.78587
ltibia -1.59028e-014
lfoot -2.15157 6.66958
ltoes -58.5075
1290
root 9.36657 20.3144 -7.9562 314.419 42.4673 147.557
lowerback 9.39412 4.86428 6.52851
upperback -4.19206 7.54739 10.8155
thorax -10.5727 3.34018 6.86298
lowerneck -27.7239 -5.12392 -5.72648
upperneck -5.78227 -4.65002 4.74209
head 2.58818 -1.68732 1.97312
rclavicle -2.59016e-013 -6.75868e-014
rhumerus 58.1336 -20.5291 -54.4466
rradius 66.0593
rwrist 2.10309
rhand -39.5059 99.7229
rfingers 7.12502
rthumb -12.4914 129.33
lclavicle -2.59016e-013 -6.75868e-014
lhumerus 60.8737 33.6504 31.593
lradius 60.517
lwrist 5.66659
lhand -64.2415 167.469
lfingers 7.12502
lthumb -36.1797 -218.803
rfemur -23.25 0.128395 -29.8631
rtibia 37.772
rfoot -9.3137 -29.6939
rtoes -36.2938
lfemur 6.037 -2.09623 -8.50052
ltibia 2.54444e-014
lfoot -1.25163 5.92002
ltoes -59.1665
1291
root 9.38836 20.3241 -8.09149 315.302 43.7145 148.532
lowerback 9.12866 5.00985 6.50314
upperback -4.32094 7.69264 10.4287
thorax -10.5063 3.39134 6.42585
lowerneck -27.6452 -5.09384 -6.11714
upperneck -6.04526 -4.47135 4.68548
head 2.49258 -1.58535 2.03809
rclavicle 9.10434e-014 -5.52621e-014
rhumerus 57.3171 -20.3237 -53.8031
rradius 66.7564
rwrist 2.43126
rhand -39.5983 100.373
rfingers 7.12502
rthumb -12.5805 129.974
lclavicle 9.10434e-014 -5.52621e-014
lhumerus 60.1515 32.8574 32.6477
lradius 61.3736
lwrist 4.91516
lhand -63.6719 167.919
lfingers 7.12502
lthumb -35.6401 -218.485
rfemur -20.4751 2.08511 -29.5676
rtibia 36.9617
rfoot -8.90084 -30.4742
rtoes -37.8194
lfemur 6.01451 -2.25654 -8.05396
ltibia 0
lfoot -0.45498 5.44717
ltoes -59.7639
1292
root 9.4013 20.3161 -8.19852 316.82 45.4376 148.702
lowerback 7.17424 4.99468 5.79301
upperback -4.83844 7.3902 10.1078
thorax -9.93628 3.29986 6.63184
lowerneck -27.4876 -5.05191 -6.17476
upperneck -6.30054 -4.39968 4.59943
head 2.38797 -1.55081 2.03079
rclavicle -1.10127e-013 -4.69132e-014
rhumerus 56.7235 -20.0047 -53.4384
rradius 67.0099
rwrist 3.07778
rhand -39.416 100.184
rfingers 7.12502
rthumb -12.4047 129.796
lclavicle -1.10127e-013 -4.69132e-014
lhumerus 59.2281 32.1291 33.126
lradius 62.1306
lwrist 4.64207
lhand -63.5024 167.041
lfingers 7.12502
lthumb -35.4794 -219.402
rfemur -17.9139 3.73877 -29.0983
rtibia 36.2428
rfoot -8.76342 -32.5526
rtoes -38.0938
lfemur 4.59972 -2.89534 -7.39182
ltibia -2.06736e-014
lfoot -0.582769 5.31445
ltoes -60.3667
1293
root 9.42823 20.3477 -8.31216 317.436 46.2617 149.635
lowerback 7.29665 5.10421 5.84065
upperback -4.93667 7.55039 9.83643
thorax -10.0806 3.35557 6.26841
lowerneck -27.4534 -4.90045 -6.0211
upperneck -6.26697 -4.25684 4.58339
head 2.38481 -1.48926 2.01571
rclavicle 1.13307e-013 -1.59028e-014
rhumerus 56.031 -19.7954 -52.5308
rradius 67.2256
rwrist 3.0605
rhand -39.3671 99.6078
rfingers 7.12502
rthumb -12.3576 129.223
lclavicle 1.13307e-013 -1.59028e-014
lhumerus 57.8377 31.313 32.7526
lradius 62.8071
lwrist 4.79617
lhand -63.5473 165.013
lfingers 7.12502
lthumb -35.5219 -221.42
rfemur -15.5641 6.84254 -28.2896
rtibia 35.5952
rfoot -8.05503 -34.2302
rtoes -39.6073
lfemur 5.03422 -2.90745 -6.65816
ltibia 2.54444e-014
lfoot -1.72197 5.7993
ltoes -60.3128
1294
root 9.45235 20.3915 -8.41243 318.221 47.1365 150.363
lowerback 6.97885 5.11535 5.79116
upperback -5.04635 7.5244 9.59109
thorax -9.97618 3.33904 6.04512
lowerneck -27.4958 -4.7321 -5.92553
upperneck -6.00797 -4.08677 4.76579
head 2.46817 -1.40866 2.07291
rclavicle 9.95911e-014 -6.44062e-014
rhumerus 55.8758 -19.4506 -51.8719
rradius 67.0626
rwrist 2.97328
rhand -39.221 99.6731
rfingers 7.12502
rthumb -12.2167 129.296
lclavicle 9.95911e-014 -6.44062e-014
lhumerus 56.5743 30.5447 32.0753
lradius 63.0638
lwrist 4.63295
lhand -63.5739 164.777
lfingers 7.12502
lthumb -35.5472 -221.65
rfemur -13.5534 9.07158 -27.3509
rtibia 34.9957
rfoot -6.2361 -34.8005
rtoes -41.5623
lfemur 5.19022 -3.01799 -5.94531
ltibia -4.77083e-015
lfoot -2.71265 7.00155
ltoes -59.8775
1295
root 9.47613 20.4445 -8.49471 318.984 48.1559 150.943
lowerback 6.41819 5.06033 5.54286
upperback -5.08101 7.36357 9.37746
thorax -9.66409 3.28202 6.00222
lowerneck -27.491 -4.677 -6.16937
upperneck -6.05534 -3.9367 4.85067
head 2.45215 -1.32297 2.15393
rclavicle -6.03311e-014 -4.41302e-014
rhumerus 56.0478 -19.1204 -51.6433
rradius 66.6071
rwrist 3.26672
rhand -38.8373 100.276
rfingers 7.12502
rthumb -11.8467 129.921
lclavicle -6.03311e-014 -4.41302e-014
lhumerus 55.4076 30.2132 31.2396
lradius 63.1348
lwrist 4.63052
lhand -63.6306 164.604
lfingers 7.12502
lthumb -35.6009 -221.81
rfemur -11.6081 10.744 -26.3273
rtibia 34.4038
rfoot -5.29836 -34.1904
rtoes -45.7529
lfemur 5.33742 -3.32883 -5.3508
ltibia -7.95139e-015
lfoot -3.63281 8.68998
ltoes -59.6806
